<svg width="5942" height="1050" viewBox="0 0 5942 1050" fill="none" xmlns="http://www.w3.org/2000/svg">
<path d="M1696.79 1025.46V942.041L1683.03 919.681V761.441C1683.03 738.508 1675.86 721.021 1661.53 708.981C1647.77 696.941 1625.12 690.921 1593.59 690.921C1572.38 690.921 1550.88 694.361 1529.09 701.241C1507.3 707.548 1488.67 716.434 1473.19 727.901L1411.27 599.761C1438.79 582.561 1471.76 569.374 1510.17 560.201C1548.58 551.028 1586.14 546.441 1622.83 546.441C1703.67 546.441 1766.16 564.501 1810.31 600.621C1855.03 636.741 1877.39 694.074 1877.39 772.621V1025.46H1696.79ZM1563.49 1034.06C1525.08 1034.06 1492.97 1027.47 1467.17 1014.28C1441.37 1001.09 1421.88 983.608 1408.69 961.821C1395.5 939.461 1388.91 914.808 1388.91 887.861C1388.91 857.474 1396.65 831.674 1412.13 810.461C1427.61 789.248 1451.12 773.194 1482.65 762.301C1514.76 751.408 1555.18 745.961 1603.91 745.961H1701.95V839.701H1634.87C1614.23 839.701 1599.04 843.141 1589.29 850.021C1580.12 856.328 1575.53 866.074 1575.53 879.261C1575.53 890.154 1579.54 899.328 1587.57 906.781C1596.17 913.661 1607.64 917.101 1621.97 917.101C1635.16 917.101 1647.2 913.661 1658.09 906.781C1669.56 899.328 1677.87 887.861 1683.03 872.381L1707.97 930.001C1700.52 964.974 1684.75 991.061 1660.67 1008.26C1636.59 1025.46 1604.2 1034.06 1563.49 1034.06ZM2178.97 1034.06C2114.18 1034.06 2063.73 1018.58 2027.61 987.621C1991.49 956.088 1973.43 907.928 1973.43 843.141V449.261H2167.79V841.421C2167.79 855.754 2171.52 866.934 2178.97 874.961C2187 882.988 2196.74 887.001 2208.21 887.001C2224.84 887.001 2239.46 882.701 2252.07 874.101L2298.51 1009.12C2283.6 1017.72 2265.54 1024.03 2244.33 1028.04C2223.69 1032.05 2201.9 1034.06 2178.97 1034.06ZM1908.93 722.741V580.841H2264.11V722.741H1908.93ZM2534.12 1034.06C2496.85 1034.06 2463.02 1026.61 2432.64 1011.7C2402.82 996.221 2379.32 972.428 2362.12 940.321C2344.92 907.641 2336.32 865.788 2336.32 814.761V555.041H2530.68V781.221C2530.68 814.474 2536.12 837.694 2547.02 850.881C2557.91 864.068 2572.82 870.661 2591.74 870.661C2603.2 870.661 2613.81 867.794 2623.56 862.061C2633.88 855.754 2642.19 845.721 2648.5 831.961C2654.8 817.628 2657.96 798.994 2657.96 776.061V555.041H2852.32V1025.46H2667.42V889.581L2704.4 926.561C2687.77 963.254 2663.98 990.488 2633.02 1008.26C2602.63 1025.46 2569.66 1034.06 2534.12 1034.06ZM2929.06 1025.46V555.041H3113.96V696.941L3083.86 656.521C3098.2 619.828 3121.13 592.308 3152.66 573.961C3184.2 555.614 3222.04 546.441 3266.18 546.441V718.441C3257.58 717.294 3249.84 716.434 3242.96 715.861C3236.66 715.288 3230.06 715.001 3223.18 715.001C3193.94 715.001 3169.86 722.741 3150.94 738.221C3132.6 753.128 3123.42 779.214 3123.42 816.481V1025.46H2929.06ZM3560.45 1034.06C3506.56 1034.06 3458.69 1023.74 3416.83 1003.1C3374.98 982.461 3342.01 953.794 3317.93 917.101C3294.43 879.834 3282.67 837.408 3282.67 789.821C3282.67 742.234 3294.43 700.094 3317.93 663.401C3342.01 626.708 3374.98 598.041 3416.83 577.401C3458.69 556.761 3506.56 546.441 3560.45 546.441C3617.79 546.441 3666.81 558.768 3707.51 583.421C3748.22 608.074 3776.31 642.188 3791.79 685.761L3641.29 759.721C3631.55 737.934 3619.51 722.168 3605.17 712.421C3591.41 702.674 3576.22 697.801 3559.59 697.801C3545.26 697.801 3531.79 701.241 3519.17 708.121C3507.13 715.001 3497.39 725.321 3489.93 739.081C3483.05 752.268 3479.61 769.181 3479.61 789.821C3479.61 810.461 3483.05 827.661 3489.93 841.421C3497.39 855.181 3507.13 865.501 3519.17 872.381C3531.79 879.261 3545.26 882.701 3559.59 882.701C3576.22 882.701 3591.41 877.828 3605.17 868.081C3619.51 858.334 3631.55 842.568 3641.29 820.781L3791.79 894.741C3776.31 938.314 3748.22 972.428 3707.51 997.081C3666.81 1021.73 3617.79 1034.06 3560.45 1034.06ZM4154.05 546.441C4190.17 546.441 4222.85 553.894 4252.09 568.801C4281.33 583.134 4304.27 605.781 4320.89 636.741C4338.09 667.701 4346.69 707.834 4346.69 757.141V1025.46H4152.33V790.681C4152.33 761.441 4147.17 740.801 4136.85 728.761C4126.53 716.148 4112.49 709.841 4094.71 709.841C4081.53 709.841 4069.2 712.994 4057.73 719.301C4046.84 725.034 4037.95 734.781 4031.07 748.541C4024.77 762.301 4021.61 780.934 4021.61 804.441V1025.46H3827.25V387.341H4021.61V692.641L3975.17 653.081C3993.52 617.534 4018.17 590.874 4049.13 573.101C4080.67 555.328 4115.64 546.441 4154.05 546.441ZM4689.76 1034.06C4632.43 1034.06 4582.26 1023.45 4539.26 1002.24C4496.83 981.028 4463.87 952.074 4440.36 915.381C4416.85 878.114 4405.1 836.261 4405.1 789.821C4405.1 742.234 4416.57 700.094 4439.5 663.401C4463.01 626.708 4494.83 598.041 4534.96 577.401C4575.67 556.761 4621.25 546.441 4671.7 546.441C4718.14 546.441 4760.85 555.614 4799.84 573.961C4839.4 592.308 4870.93 619.541 4894.44 655.661C4918.52 691.781 4930.56 736.501 4930.56 789.821C4930.56 796.701 4930.27 804.441 4929.7 813.041C4929.13 821.068 4928.55 828.521 4927.98 835.401H4565.92V741.661H4824.78L4751.68 766.601C4751.68 748.254 4748.24 732.774 4741.36 720.161C4735.05 706.974 4726.17 696.941 4714.7 690.061C4703.23 682.608 4689.47 678.881 4673.42 678.881C4657.37 678.881 4643.32 682.608 4631.28 690.061C4619.81 696.941 4610.93 706.974 4604.62 720.161C4598.31 732.774 4595.16 748.254 4595.16 766.601V795.841C4595.16 815.908 4599.17 833.108 4607.2 847.441C4615.23 861.774 4626.69 872.668 4641.6 880.121C4656.51 887.001 4674.57 890.441 4695.78 890.441C4717.57 890.441 4735.34 887.574 4749.1 881.841C4763.43 876.108 4778.34 867.508 4793.82 856.041L4895.3 958.381C4872.37 983.034 4843.99 1001.95 4810.16 1015.14C4776.91 1027.75 4736.77 1034.06 4689.76 1034.06ZM5605.08 546.441C5640.62 546.441 5672.44 553.894 5700.54 568.801C5729.2 583.134 5751.56 605.781 5767.62 636.741C5784.24 667.701 5792.56 707.834 5792.56 757.141V1025.46H5598.2V790.681C5598.2 761.441 5593.32 740.801 5583.58 728.761C5573.83 716.148 5561.22 709.841 5545.74 709.841C5534.27 709.841 5523.95 712.708 5514.78 718.441C5505.6 724.174 5498.15 733.348 5492.42 745.961C5487.26 758.001 5484.68 774.628 5484.68 795.841V1025.46H5290.32V790.681C5290.32 761.441 5285.73 740.801 5276.56 728.761C5267.38 716.148 5254.48 709.841 5237.86 709.841C5226.39 709.841 5216.07 712.708 5206.9 718.441C5197.72 724.174 5190.27 733.348 5184.54 745.961C5179.38 758.001 5176.8 774.628 5176.8 795.841V1025.46H4982.44V555.041H5167.34V690.061L5129.5 652.221C5147.27 616.674 5171.06 590.301 5200.88 573.101C5230.69 555.328 5263.94 546.441 5300.64 546.441C5341.92 546.441 5378.32 557.334 5409.86 579.121C5441.96 600.334 5463.46 634.161 5474.36 680.601L5415.02 671.141C5432.22 632.154 5457.16 601.768 5489.84 579.981C5523.09 557.621 5561.5 546.441 5605.08 546.441Z" fill="white"/>
<path d="M16.349 268.466C780.008 266.662 770.712 717.135 666.505 954.823C664.229 960.016 657.121 960.318 654.159 955.484C558.589 799.519 295.78 555.379 173.5 450.498C265.835 551.87 497.918 846.799 608.157 988.959C611.08 992.728 609.111 998.224 604.588 999.741C150.841 1151.88 18.9207 586.143 9.19949 275.494C9.0769 271.577 12.4293 268.476 16.349 268.466Z" fill="white" stroke="white" stroke-width="17"/>
<path d="M818.5 193.957C738.106 193.957 589.406 262.121 523.115 320.431C518.375 324.6 510.75 321.365 511.336 315.079C521.459 206.349 623.583 38.4625 818.5 12.9585C925.5 -1.04192 1052.26 21.9337 1124 84.4578C1226.04 173.391 1261 265.957 1261 408.959V1033.96C1261 1037.83 1257.87 1040.96 1254 1040.96H1031C1027.13 1040.96 1024 1037.87 1024 1034V590.959C1024 322.459 961.141 193.957 818.5 193.957Z" fill="white"/>
</svg>
