<svg width="1270" height="1050" viewBox="0 0 1270 1050" fill="none" xmlns="http://www.w3.org/2000/svg">
<g clip-path="url(#clip0_17368_14174)">
<path d="M16.349 268.466C780.008 266.662 770.712 717.135 666.505 954.823C664.229 960.016 657.121 960.318 654.159 955.484C558.589 799.519 295.78 555.379 173.5 450.498C265.835 551.87 497.918 846.799 608.157 988.959C611.08 992.728 609.111 998.224 604.588 999.741C150.841 1151.88 18.9207 586.143 9.19949 275.494C9.0769 271.577 12.4293 268.476 16.349 268.466Z" fill="white" stroke="white" stroke-width="17"/>
<path d="M818.5 193.957C738.106 193.957 589.406 262.121 523.115 320.431C518.375 324.6 510.75 321.365 511.336 315.079C521.459 206.349 623.583 38.4625 818.5 12.9585C925.5 -1.04192 1052.26 21.9337 1124 84.4578C1226.04 173.391 1261 265.957 1261 408.959V1033.96C1261 1037.83 1257.87 1040.96 1254 1040.96H1031C1027.13 1040.96 1024 1037.87 1024 1034V590.959C1024 322.459 961.141 193.957 818.5 193.957Z" fill="white" stroke="white" stroke-width="17"/>
</g>
<defs>
<clipPath id="clip0_17368_14174">
<rect width="1270" height="1050" fill="white"/>
</clipPath>
</defs>
</svg>
